<svg xmlns="http://www.w3.org/2000/svg" width="121" height="24" viewBox="0 0 121 24">
    <path fill="#FFF" fill-rule="nonzero" d="M62.276 11.671c-.998 0-1.718.328-2.448.661v7.549c.7.066 1.1.066 1.763.066 2.397 0 2.725-1.097 2.725-2.63v-3.605c0-1.132-.375-2.04-2.04-2.04zm-15.915-.412c-1.663 0-2.042.913-2.042 2.044v.635H48.4v-.635c0-1.13-.38-2.044-2.04-2.044zm-30.832 7.857c0 .894.422 1.359 1.354 1.359.999 0 1.59-.326 2.32-.66v-1.791h-2.185c-1.034 0-1.489.192-1.489 1.092zm62.229-7.445c-1.666 0-2.243.91-2.243 2.04v4.131c0 1.135.577 2.046 2.243 2.046 1.661 0 2.242-.911 2.242-2.046v-4.13c0-1.132-.582-2.04-2.242-2.04zM7.368 23.747H2.471V11.896H.025V7.812h2.447V5.359c0-3.332 1.38-5.312 5.305-5.312h3.267V4.13H9.002c-1.528 0-1.628.571-1.628 1.636l-.007 2.044h3.7l-.433 4.084H7.367v11.852zm16.731.03h-4.08l-.176-1.031a9.352 9.352 0 0 1-4.623 1.2c-2.993 0-4.585-2-4.585-4.765 0-3.262 1.858-4.426 5.183-4.426h3.384v-.706c0-1.665-.19-2.153-2.75-2.153h-4.187l.409-4.084h4.576c5.618 0 6.85 1.775 6.85 6.27v9.696zm13.876-11.582c-2.54-.435-3.268-.531-4.49-.531-2.195 0-2.858.484-2.858 2.348v3.526c0 1.863.663 2.35 2.858 2.35 1.222 0 1.95-.098 4.49-.535v3.984c-2.224.498-3.673.63-4.898.63-5.256 0-7.345-2.765-7.345-6.759v-2.86c0-3.997 2.09-6.767 7.345-6.767 1.225 0 2.674.132 4.898.633v3.981zm15.321 5.013h-8.978v.33c0 1.863.664 2.35 2.858 2.35 1.972 0 3.176-.098 5.71-.535v3.984c-2.444.498-3.718.63-6.116.63-5.257 0-7.347-2.765-7.347-6.759v-3.27c0-3.495 1.55-6.357 6.937-6.357 5.387 0 6.936 2.83 6.936 6.356v3.271zm15.915.076c0 3.86-1.103 6.675-7.785 6.675-2.414 0-3.829-.212-6.492-.622V1.273l4.894-.816v7.718c1.057-.393 2.426-.593 3.672-.593 4.895 0 5.71 2.195 5.71 5.721v3.981zm15.689.084c0 3.33-1.375 6.56-7.126 6.56-5.754 0-7.154-3.23-7.154-6.56v-3.215c0-3.331 1.4-6.562 7.154-6.562 5.751 0 7.126 3.23 7.126 6.562v3.215zm15.678 0c0 3.33-1.376 6.56-7.126 6.56-5.754 0-7.154-3.23-7.154-6.56v-3.215c0-3.331 1.4-6.562 7.154-6.562 5.75 0 7.126 3.23 7.126 6.562v3.215zm16.09 6.379h-5.306l-4.486-7.49v7.49h-4.896V1.273l4.896-.817v14.468l4.486-7.112h5.305l-4.898 7.762 4.898 8.173zM93.434 11.671c-1.663 0-2.24.91-2.24 2.04v4.131c0 1.135.577 2.046 2.24 2.046 1.66 0 2.248-.911 2.248-2.046v-4.13c0-1.132-.588-2.04-2.248-2.04zm26.027 9.28c.824 0 1.48.673 1.48 1.513 0 .852-.656 1.517-1.486 1.517a1.498 1.498 0 0 1-1.496-1.517c0-.84.67-1.512 1.496-1.512h.006zm-.006.236c-.665 0-1.208.571-1.208 1.277 0 .718.544 1.282 1.214 1.282.67.007 1.206-.564 1.206-1.276 0-.711-.536-1.283-1.206-1.283h-.006zm-.282 2.156h-.269v-1.687c.141-.02.276-.039.477-.039.255 0 .422.054.525.127.099.075.152.188.152.35 0 .222-.147.356-.328.41v.013c.148.027.248.16.282.408.04.263.08.363.106.418h-.281c-.04-.055-.08-.209-.114-.431-.04-.214-.148-.295-.363-.295h-.186v.726zm0-.933h.195c.22 0 .408-.081.408-.29 0-.148-.107-.295-.408-.295a1.39 1.39 0 0 0-.195.013v.572z"/>
</svg>
